<svg width="72" height="31" viewBox="0 0 72 31" fill="none" xmlns="http://www.w3.org/2000/svg">
<path d="M10.24 30.32C8.87467 30.6613 7.168 30.832 5.12 30.832C3.15733 30.832 1.45067 30.6613 0 30.32V20.08C1.45067 19.7387 3.15733 19.568 5.12 19.568C7.168 19.568 8.87467 19.7387 10.24 20.08L10.24 13.68C11.6907 13.3387 13.3973 13.168 15.36 13.168C17.408 13.168 19.1147 13.3387 20.48 13.68V7.28C21.9307 6.93867 23.6373 6.768 25.6 6.768C27.648 6.768 29.3547 6.93867 30.72 7.28V0.88C32.1707 0.538667 33.8773 0.368 35.84 0.368C37.888 0.368 39.5947 0.538667 40.96 0.88L40.96 7.28C42.4107 6.93867 44.1173 6.768 46.08 6.768C48.128 6.768 49.8347 6.93867 51.2 7.28V13.68C52.6507 13.3387 54.3573 13.168 56.32 13.168C58.368 13.168 60.0747 13.3387 61.44 13.68V20.08C62.8907 19.7387 64.5973 19.568 66.56 19.568C68.608 19.568 70.3147 19.7387 71.68 20.08L71.68 30.32C70.3147 30.6613 68.608 30.832 66.56 30.832C64.5973 30.832 62.8907 30.6613 61.44 30.32L61.44 23.92C60.0747 24.2613 58.368 24.432 56.32 24.432C54.3573 24.432 52.6507 24.2613 51.2 23.92V17.52C49.8347 17.8613 48.128 18.032 46.08 18.032C44.1173 18.032 42.4107 17.8613 40.96 17.52V11.12C39.5947 11.4613 37.888 11.632 35.84 11.632C33.8773 11.632 32.1707 11.4613 30.72 11.12L30.72 17.52C29.3547 17.8613 27.648 18.032 25.6 18.032C23.6373 18.032 21.9307 17.8613 20.48 17.52V23.92C19.1147 24.2613 17.408 24.432 15.36 24.432C13.3973 24.432 11.6907 24.2613 10.24 23.92V30.32Z" fill="black"/>
<path d="M10.24 30.32L10.4825 31.2901L11.24 31.1008V30.32H10.24ZM0 30.32H-1V31.112L-0.229034 31.2934L0 30.32ZM0 20.08L-0.229042 19.1066L-1 19.288V20.08H0ZM10.24 20.08L9.99747 21.0501L11.24 21.3608V20.08H10.24ZM10.24 13.68L10.011 12.7066L9.24 12.888V13.68H10.24ZM20.48 13.68L20.2375 14.6501L21.48 14.9608V13.68H20.48ZM20.48 7.28L20.251 6.30658L19.48 6.48799V7.28L20.48 7.28ZM30.72 7.28L30.4775 8.25014L31.72 8.56078V7.28H30.72ZM30.72 0.88L30.491 -0.0934172L29.72 0.087986V0.88H30.72ZM40.96 0.88H41.96V0.0992241L41.2025 -0.0901423L40.96 0.88ZM40.96 7.28H39.96V8.5426L41.189 8.25342L40.96 7.28ZM51.2 7.28H52.2V6.49922L51.4425 6.30986L51.2 7.28ZM51.2 13.68H50.2V14.9426L51.429 14.6534L51.2 13.68ZM61.44 13.68H62.44V12.8992L61.6825 12.7099L61.44 13.68ZM61.44 20.08H60.44V21.3426L61.669 21.0534L61.44 20.08ZM71.68 20.08H72.68V19.2992L71.9225 19.1099L71.68 20.08ZM71.68 30.32L71.9225 31.2901L72.68 31.1008V30.32H71.68ZM61.44 30.32H60.44V31.112L61.211 31.2934L61.44 30.32ZM61.44 23.92H62.44V22.6392L61.1975 22.9499L61.44 23.92ZM51.2 23.92H50.2V24.712L50.971 24.8934L51.2 23.92ZM51.2 17.52H52.2V16.2392L50.9575 16.5499L51.2 17.52ZM40.96 17.52H39.96V18.312L40.731 18.4934L40.96 17.52ZM40.96 11.12H41.96V9.83922L40.7175 10.1499L40.96 11.12ZM30.72 11.12L30.949 10.1466L29.72 9.8574V11.12H30.72ZM30.72 17.52L30.9625 18.4901L31.72 18.3008V17.52H30.72ZM20.48 17.52L20.709 16.5466L19.48 16.2574V17.52L20.48 17.52ZM20.48 23.92L20.7225 24.8901L21.48 24.7008V23.92H20.48ZM10.24 23.92L10.469 22.9466L9.24 22.6574V23.92H10.24ZM9.99747 29.3499C8.73843 29.6646 7.11974 29.832 5.12 29.832V31.832C7.21626 31.832 9.0109 31.6581 10.4825 31.2901L9.99747 29.3499ZM5.12 29.832C3.21169 29.832 1.58531 29.6657 0.229034 29.3466L-0.229034 31.2934C1.31602 31.657 3.10299 31.832 5.12 31.832V29.832ZM1 30.32V20.08H-1V30.32H1ZM0.229042 21.0534C1.58531 20.7343 3.21169 20.568 5.12 20.568V18.568C3.10298 18.568 1.31602 18.743 -0.229042 19.1066L0.229042 21.0534ZM5.12 20.568C7.11974 20.568 8.73843 20.7354 9.99747 21.0501L10.4825 19.1099C9.0109 18.7419 7.21626 18.568 5.12 18.568V20.568ZM11.24 20.08L11.24 13.68H9.24L9.24 20.08H11.24ZM10.469 14.6534C11.8253 14.3343 13.4517 14.168 15.36 14.168V12.168C13.343 12.168 11.556 12.343 10.011 12.7066L10.469 14.6534ZM15.36 14.168C17.3597 14.168 18.9784 14.3354 20.2375 14.6501L20.7225 12.7099C19.2509 12.3419 17.4563 12.168 15.36 12.168V14.168ZM21.48 13.68V7.28L19.48 7.28V13.68L21.48 13.68ZM20.709 8.25342C22.0653 7.9343 23.6917 7.768 25.6 7.768V5.768C23.583 5.768 21.796 5.94304 20.251 6.30658L20.709 8.25342ZM25.6 7.768C27.5997 7.768 29.2184 7.93539 30.4775 8.25014L30.9625 6.30986C29.4909 5.94195 27.6963 5.768 25.6 5.768V7.768ZM31.72 7.28V0.88H29.72V7.28H31.72ZM30.949 1.85342C32.3053 1.53429 33.9317 1.368 35.84 1.368V-0.632C33.823 -0.632 32.036 -0.45696 30.491 -0.0934172L30.949 1.85342ZM35.84 1.368C37.8397 1.368 39.4584 1.53539 40.7175 1.85014L41.2025 -0.0901423C39.7309 -0.458052 37.9363 -0.632 35.84 -0.632V1.368ZM39.96 0.88L39.96 7.28H41.96L41.96 0.88H39.96ZM41.189 8.25342C42.5453 7.9343 44.1717 7.768 46.08 7.768V5.768C44.063 5.768 42.276 5.94304 40.731 6.30658L41.189 8.25342ZM46.08 7.768C48.0797 7.768 49.6984 7.93539 50.9575 8.25014L51.4425 6.30986C49.9709 5.94195 48.1763 5.768 46.08 5.768V7.768ZM50.2 7.28V13.68H52.2V7.28H50.2ZM51.429 14.6534C52.7853 14.3343 54.4117 14.168 56.32 14.168V12.168C54.303 12.168 52.516 12.343 50.971 12.7066L51.429 14.6534ZM56.32 14.168C58.3197 14.168 59.9384 14.3354 61.1975 14.6501L61.6825 12.7099C60.2109 12.3419 58.4163 12.168 56.32 12.168V14.168ZM60.44 13.68V20.08H62.44V13.68H60.44ZM61.669 21.0534C63.0253 20.7343 64.6517 20.568 66.56 20.568V18.568C64.543 18.568 62.756 18.743 61.211 19.1066L61.669 21.0534ZM66.56 20.568C68.5597 20.568 70.1784 20.7354 71.4375 21.0501L71.9225 19.1099C70.4509 18.7419 68.6563 18.568 66.56 18.568V20.568ZM70.68 20.08L70.68 30.32H72.68L72.68 20.08H70.68ZM71.4375 29.3499C70.1784 29.6646 68.5597 29.832 66.56 29.832V31.832C68.6563 31.832 70.4509 31.6581 71.9225 31.2901L71.4375 29.3499ZM66.56 29.832C64.6517 29.832 63.0253 29.6657 61.669 29.3466L61.211 31.2934C62.756 31.657 64.543 31.832 66.56 31.832V29.832ZM62.44 30.32L62.44 23.92H60.44L60.44 30.32H62.44ZM61.1975 22.9499C59.9384 23.2646 58.3197 23.432 56.32 23.432V25.432C58.4163 25.432 60.2109 25.2581 61.6825 24.8901L61.1975 22.9499ZM56.32 23.432C54.4117 23.432 52.7853 23.2657 51.429 22.9466L50.971 24.8934C52.516 25.257 54.303 25.432 56.32 25.432V23.432ZM52.2 23.92V17.52H50.2V23.92H52.2ZM50.9575 16.5499C49.6984 16.8646 48.0797 17.032 46.08 17.032V19.032C48.1763 19.032 49.9709 18.8581 51.4425 18.4901L50.9575 16.5499ZM46.08 17.032C44.1717 17.032 42.5453 16.8657 41.189 16.5466L40.731 18.4934C42.276 18.857 44.063 19.032 46.08 19.032V17.032ZM41.96 17.52V11.12H39.96V17.52H41.96ZM40.7175 10.1499C39.4584 10.4646 37.8397 10.632 35.84 10.632V12.632C37.9363 12.632 39.7309 12.4581 41.2025 12.0901L40.7175 10.1499ZM35.84 10.632C33.9317 10.632 32.3053 10.4657 30.949 10.1466L30.491 12.0934C32.036 12.457 33.823 12.632 35.84 12.632V10.632ZM29.72 11.12L29.72 17.52H31.72L31.72 11.12H29.72ZM30.4775 16.5499C29.2184 16.8646 27.5997 17.032 25.6 17.032V19.032C27.6963 19.032 29.4909 18.8581 30.9625 18.4901L30.4775 16.5499ZM25.6 17.032C23.6917 17.032 22.0653 16.8657 20.709 16.5466L20.251 18.4934C21.796 18.857 23.583 19.032 25.6 19.032V17.032ZM19.48 17.52V23.92H21.48V17.52L19.48 17.52ZM20.2375 22.9499C18.9784 23.2646 17.3597 23.432 15.36 23.432V25.432C17.4563 25.432 19.2509 25.2581 20.7225 24.8901L20.2375 22.9499ZM15.36 23.432C13.4517 23.432 11.8253 23.2657 10.469 22.9466L10.011 24.8934C11.556 25.257 13.343 25.432 15.36 25.432V23.432ZM9.24 23.92V30.32H11.24V23.92H9.24Z" fill="black"/>
</svg>
