<svg width="25" height="25" viewBox="0 0 25 25" fill="none" xmlns="http://www.w3.org/2000/svg">
<path fill-rule="evenodd" clip-rule="evenodd" d="M7.46269 1.18243C7.46269 2.30845 7.40037 2.36486 6.15672 2.36486C4.95448 2.36486 4.85075 2.44527 4.85075 3.37838C4.85075 4.27939 4.72649 4.39189 3.73134 4.39189C2.70075 4.39189 2.61194 4.48581 2.61194 5.57432C2.61194 6.70034 2.54963 6.75676 1.30597 6.75676H0V12.5V18.2432H1.30597C2.54963 18.2432 2.61194 18.2997 2.61194 19.4257C2.61194 20.5142 2.70075 20.6081 3.73134 20.6081C4.72649 20.6081 4.85075 20.7206 4.85075 21.6216C4.85075 22.5547 4.95448 22.6351 6.15672 22.6351C7.40037 22.6351 7.46269 22.6916 7.46269 23.8176V25H13.806H20.1493V23.8176C20.1493 22.6916 20.2116 22.6351 21.4552 22.6351C22.6575 22.6351 22.7612 22.5547 22.7612 21.6216C22.7612 20.7206 22.8854 20.6081 23.8806 20.6081C24.9377 20.6081 25 20.5331 25 19.2568C25 17.9375 24.969 17.9054 23.694 17.9054C22.4504 17.9054 22.3881 17.9618 22.3881 19.0878V20.2703H18.8433H15.2985V19.0878C15.2985 17.9618 15.2362 17.9054 13.9925 17.9054C12.7903 17.9054 12.6866 17.825 12.6866 16.8919C12.6866 15.9588 12.5828 15.8784 11.3806 15.8784H10.0746V12.5V9.12162H11.3806C12.5828 9.12162 12.6866 9.04122 12.6866 8.10811C12.6866 7.175 12.7903 7.09459 13.9925 7.09459C15.2362 7.09459 15.2985 7.03818 15.2985 5.91216V4.72973H18.8433H22.3881V5.91216C22.3881 7.03818 22.4504 7.09459 23.694 7.09459C24.969 7.09459 25 7.0625 25 5.74324C25 4.46689 24.9377 4.39189 23.8806 4.39189C22.8854 4.39189 22.7612 4.27939 22.7612 3.37838C22.7612 2.44527 22.6575 2.36486 21.4552 2.36486C20.2116 2.36486 20.1493 2.30845 20.1493 1.18243V0H13.806H7.46269V1.18243Z" fill="black"/>
</svg>
