<svg width="42" height="42" viewBox="0 0 42 42" fill="none" xmlns="http://www.w3.org/2000/svg">
<path d="M39.6897 2.31033C38.1488 0.769408 36.2946 0 34.1251 0H7.87487C5.70539 0 3.85124 0.769408 2.31033 2.31033C0.769408 3.85124 0 5.70539 0 7.87487V34.1251C0 36.2946 0.769408 38.1488 2.31033 39.6897C3.85124 41.2306 5.70539 42 7.87487 42H14.0007C14.4001 42 14.7007 41.9853 14.9025 41.958C15.1374 41.9109 15.3493 41.7857 15.5038 41.6027C15.7035 41.3925 15.8044 41.0876 15.8044 40.6882L15.7897 38.8278C15.7813 37.6421 15.7771 36.7045 15.7771 36.0108L15.1464 36.1201C14.747 36.1937 14.2425 36.2252 13.6307 36.2168C12.9931 36.2051 12.3575 36.1411 11.7303 36.0255C11.0627 35.9023 10.4342 35.6212 9.89719 35.2057C9.33484 34.7802 8.9154 34.1936 8.69473 33.5239L8.42144 32.8932C8.1911 32.3958 7.90172 31.9278 7.55954 31.4995C7.16853 30.9886 6.77121 30.6439 6.36969 30.461L6.18049 30.3243C6.04856 30.2299 5.92856 30.1197 5.82311 29.9964C5.7224 29.8819 5.63949 29.7529 5.57716 29.6138C5.5225 29.4856 5.56875 29.3805 5.7138 29.2985C5.86095 29.2144 6.12373 29.1744 6.50843 29.1744L7.05501 29.2585C7.41869 29.33 7.87066 29.5486 8.40673 29.9123C8.94922 30.2822 9.40239 30.7684 9.73322 31.3355C10.1537 32.0818 10.6582 32.6515 11.251 33.0446C11.8438 33.4356 12.4409 33.6332 13.0421 33.6332C13.6433 33.6332 14.1626 33.587 14.6019 33.4966C15.0268 33.4087 15.4397 33.2704 15.8317 33.0845C15.9957 31.8653 16.4414 30.9235 17.1708 30.2676C16.2256 30.1749 15.2888 30.0105 14.3686 29.7757C13.4705 29.529 12.6068 29.1709 11.7976 28.7098C10.9509 28.2489 10.2031 27.6261 9.59658 26.8767C9.01427 26.1473 8.53496 25.1908 8.16077 24.0072C7.78868 22.8216 7.60158 21.453 7.60158 19.9037C7.60158 17.6985 8.32054 15.8212 9.76055 14.2698C9.08784 12.6132 9.15091 10.7528 9.95185 8.69473C10.4816 8.52866 11.2657 8.65269 12.3042 9.06262C13.3427 9.47255 14.1037 9.82362 14.5872 10.1137C15.0707 10.408 15.4575 10.654 15.7497 10.8537C17.4588 10.3781 19.225 10.139 20.999 10.1432C22.8047 10.1432 24.5538 10.3807 26.2503 10.8537L27.2888 10.1978C28.0876 9.71819 28.9301 9.31556 29.8051 8.99535C30.7721 8.62956 31.5079 8.53076 32.0208 8.69473C32.8407 10.7549 32.9122 12.6132 32.2374 14.2719C33.6774 15.8212 34.3984 17.6985 34.3984 19.9058C34.3984 21.4551 34.2113 22.8279 33.8371 24.0198C33.465 25.2139 32.9815 26.1704 32.3887 26.8914C31.7715 27.6312 31.0206 28.248 30.1751 28.7098C29.2922 29.2018 28.4345 29.557 27.6041 29.7757C26.6839 30.0112 25.7471 30.1764 24.8018 30.2697C25.7478 31.0895 26.2229 32.3824 26.2229 34.1504V40.6882C26.2229 40.9972 26.2671 41.2474 26.3596 41.4387C26.4021 41.5309 26.4627 41.6135 26.5378 41.6818C26.613 41.7501 26.701 41.8025 26.7968 41.836C26.9986 41.9075 27.1752 41.9538 27.3308 41.9706C27.4864 41.9916 27.7092 41.9979 27.9993 41.9979H34.1251C36.2946 41.9979 38.1488 41.2285 39.6897 39.6876C41.2285 38.1488 42 36.2925 42 34.123V7.87487C42 5.70539 41.2285 3.85124 39.6876 2.31033H39.6897Z" fill="black"/>
</svg>
