<svg width="25" height="25" viewBox="0 0 25 25" fill="none" xmlns="http://www.w3.org/2000/svg">
<path fill-rule="evenodd" clip-rule="evenodd" d="M11.3014 0.684932C11.3014 1.06541 11.0729 1.36986 10.7877 1.36986C10.5051 1.36986 10.274 1.60103 10.274 1.88356C10.274 2.16884 9.96952 2.39726 9.58904 2.39726C9.05616 2.39726 8.90411 2.62568 8.90411 3.42466V4.45205H12.3288H15.7534V3.42466C15.7534 2.73973 15.5822 2.39726 15.2397 2.39726C14.9572 2.39726 14.726 2.1661 14.726 1.88356C14.726 1.59829 14.4216 1.36986 14.0411 1.36986C13.5846 1.36986 13.3562 1.14144 13.3562 0.684932C13.3562 0.152055 13.1277 0 12.3288 0C11.5298 0 11.3014 0.152055 11.3014 0.684932ZM2.39726 5.99315C2.39726 8.13938 2.42808 8.21918 3.25342 8.21918C3.88116 8.21918 4.10959 8.03664 4.10959 7.53425C4.10959 7.07774 4.33801 6.84932 4.79452 6.84932C5.175 6.84932 5.47945 6.62089 5.47945 6.33562C5.47945 6.05034 5.7839 5.82192 6.16438 5.82192C6.69726 5.82192 6.84932 5.59349 6.84932 4.79452V3.76712H4.62329H2.39726V5.99315ZM18.0366 3.99555C17.5524 4.47945 17.8356 5.55068 18.4932 5.7226C18.8699 5.82123 19.1781 6.11507 19.1781 6.37569C19.1781 6.63596 19.4863 6.84932 19.863 6.84932C20.3195 6.84932 20.5479 7.07774 20.5479 7.53425C20.5479 8.03664 20.7764 8.21918 21.4041 8.21918C22.2295 8.21918 22.2603 8.13938 22.2603 5.99315V3.76712H20.2627C19.1637 3.76712 18.162 3.86986 18.0366 3.99555ZM8.90411 5.82192C8.90411 6.27842 8.67568 6.50685 8.21918 6.50685C7.76267 6.50685 7.53425 6.73527 7.53425 7.19178C7.53425 7.57226 7.30582 7.87671 7.02055 7.87671C6.73801 7.87671 6.50685 8.10788 6.50685 8.39041C6.50685 8.67568 6.2024 8.90411 5.82192 8.90411C5.18048 8.90411 5.13699 9.13253 5.13699 12.5C5.13699 15.8675 5.18048 16.0959 5.82192 16.0959C6.27842 16.0959 6.50685 16.3243 6.50685 16.7808C6.50685 17.1613 6.73527 17.4658 7.02055 17.4658C7.30308 17.4658 7.53425 17.6969 7.53425 17.9795C7.53425 18.2647 7.8387 18.4932 8.21918 18.4932C8.67568 18.4932 8.90411 18.7216 8.90411 19.1781C8.90411 19.8175 9.13253 19.863 12.3288 19.863C15.525 19.863 15.7534 19.8175 15.7534 19.1781C15.7534 18.7216 15.9818 18.4932 16.4384 18.4932C16.8188 18.4932 17.1233 18.2647 17.1233 17.9795C17.1233 17.6942 17.4277 17.4658 17.8082 17.4658C18.2647 17.4658 18.4932 17.2373 18.4932 16.7808C18.4932 16.3243 18.7216 16.0959 19.1781 16.0959C19.8195 16.0959 19.863 15.8675 19.863 12.5C19.863 9.13253 19.8195 8.90411 19.1781 8.90411C18.7976 8.90411 18.4932 8.67568 18.4932 8.39041C18.4932 8.10514 18.1887 7.87671 17.8082 7.87671C17.3517 7.87671 17.1233 7.64829 17.1233 7.19178C17.1233 6.73527 16.8949 6.50685 16.4384 6.50685C15.9818 6.50685 15.7534 6.27842 15.7534 5.82192C15.7534 5.18253 15.525 5.13699 12.3288 5.13699C9.13253 5.13699 8.90411 5.18253 8.90411 5.82192ZM2.39726 9.58904C2.39726 9.96952 2.16884 10.274 1.88356 10.274C1.59829 10.274 1.36986 10.5784 1.36986 10.9589C1.36986 11.4154 1.14144 11.6438 0.684932 11.6438C0.182534 11.6438 0 11.8723 0 12.5C0 13.1277 0.182534 13.3562 0.684932 13.3562C1.14144 13.3562 1.36986 13.5846 1.36986 14.0411C1.36986 14.4216 1.59829 14.726 1.88356 14.726C2.16884 14.726 2.39726 15.0305 2.39726 15.411C2.39726 15.9134 2.62568 16.0959 3.25342 16.0959H4.10959V12.5V8.90411H3.25342C2.62568 8.90411 2.39726 9.08664 2.39726 9.58904ZM20.5479 12.5V16.0959H21.4041C22.0318 16.0959 22.2603 15.9134 22.2603 15.411C22.2603 14.9545 22.4887 14.726 22.9452 14.726C23.4017 14.726 23.6301 14.4976 23.6301 14.0411C23.6301 13.5846 23.8586 13.3562 24.3151 13.3562C24.8175 13.3562 25 13.1277 25 12.5C25 11.8723 24.8175 11.6438 24.3151 11.6438C23.8586 11.6438 23.6301 11.4154 23.6301 10.9589C23.6301 10.5024 23.4017 10.274 22.9452 10.274C22.4887 10.274 22.2603 10.0455 22.2603 9.58904C22.2603 9.08664 22.0318 8.90411 21.4041 8.90411H20.5479V12.5ZM2.39726 19.0068V21.2329H4.62329C6.76952 21.2329 6.84932 21.2021 6.84932 20.3767C6.84932 19.749 6.66678 19.5205 6.16438 19.5205C5.70788 19.5205 5.47945 19.2921 5.47945 18.8356C5.47945 18.3791 5.25103 18.1507 4.79452 18.1507C4.33801 18.1507 4.10959 17.9223 4.10959 17.4658C4.10959 16.9634 3.88116 16.7808 3.25342 16.7808C2.42808 16.7808 2.39726 16.8606 2.39726 19.0068ZM20.5479 17.4658C20.5479 17.9223 20.3195 18.1507 19.863 18.1507C19.4065 18.1507 19.1781 18.3791 19.1781 18.8356C19.1781 19.2921 18.9497 19.5205 18.4932 19.5205C17.9908 19.5205 17.8082 19.749 17.8082 20.3767C17.8082 21.2021 17.888 21.2329 20.0342 21.2329H22.2603V19.0068C22.2603 16.8606 22.2295 16.7808 21.4041 16.7808C20.7764 16.7808 20.5479 16.9634 20.5479 17.4658ZM8.90411 21.7466C8.90411 22.3743 9.08664 22.6027 9.58904 22.6027C10.0455 22.6027 10.274 22.8312 10.274 23.2877C10.274 23.6682 10.5024 23.9726 10.7877 23.9726C11.0702 23.9726 11.3014 24.2038 11.3014 24.4863C11.3014 24.8288 11.6438 25 12.3288 25C13.0137 25 13.3562 24.8288 13.3562 24.4863C13.3562 24.201 13.6606 23.9726 14.0411 23.9726C14.4976 23.9726 14.726 23.7442 14.726 23.2877C14.726 22.9072 14.9545 22.6027 15.2397 22.6027C15.5592 22.6027 15.7534 22.2795 15.7534 21.7466V20.8904H12.3288H8.90411V21.7466Z" fill="black"/>
</svg>
