<svg width="42" height="42" viewBox="0 0 42 42" fill="none" xmlns="http://www.w3.org/2000/svg">
<path d="M37.3333 0C38.571 0 39.758 0.491665 40.6332 1.36683C41.5083 2.242 42 3.42899 42 4.66667V37.3333C42 38.571 41.5083 39.758 40.6332 40.6332C39.758 41.5083 38.571 42 37.3333 42H4.66667C3.42899 42 2.242 41.5083 1.36683 40.6332C0.491665 39.758 0 38.571 0 37.3333V4.66667C0 3.42899 0.491665 2.242 1.36683 1.36683C2.242 0.491665 3.42899 0 4.66667 0H37.3333ZM36.1667 36.1667V23.8C36.1667 21.7826 35.3653 19.8478 33.9387 18.4213C32.5122 16.9947 30.5774 16.1933 28.56 16.1933C26.5767 16.1933 24.2667 17.4067 23.1467 19.2267V16.6367H16.6367V36.1667H23.1467V24.6633C23.1467 22.8667 24.5933 21.3967 26.39 21.3967C27.2564 21.3967 28.0873 21.7408 28.6999 22.3535C29.3125 22.9661 29.6567 23.797 29.6567 24.6633V36.1667H36.1667ZM9.05333 12.9733C10.093 12.9733 11.09 12.5603 11.8252 11.8252C12.5603 11.09 12.9733 10.093 12.9733 9.05333C12.9733 6.88333 11.2233 5.11 9.05333 5.11C8.0075 5.11 7.00449 5.52546 6.26498 6.26498C5.52546 7.00449 5.11 8.0075 5.11 9.05333C5.11 11.2233 6.88333 12.9733 9.05333 12.9733M12.2967 36.1667V16.6367H5.83333V36.1667H12.2967V36.1667Z" fill="black"/>
</svg>
